<?xml version="1.0" standalone="no"?>
<!DOCTYPE svg PUBLIC "-//W3C//DTD SVG 20010904//EN"
 "http://www.w3.org/TR/2001/REC-SVG-20010904/DTD/svg10.dtd">
<svg version="1.0" xmlns="http://www.w3.org/2000/svg"
 width="128.000000pt" height="128.000000pt" viewBox="0 0 128.000000 128.000000"
 preserveAspectRatio="xMidYMid meet">
<metadata>
Created by potrace 1.11, written by Peter Selinger 2001-2013
</metadata>
<g transform="translate(0.000000,128.000000) scale(0.100000,-0.100000)"
fill="#000000" stroke="none">
<path d="M0 640 l0 -640 640 0 640 0 0 640 -1 640 -639 0 -640 0 0 -640z m523
444 c34 -14 76 -32 92 -40 61 -27 372 -161 428 -184 31 -13 57 -27 57 -31 0
-8 -159 -398 -166 -407 -6 -8 -36 17 -126 103 -157 149 -357 338 -398 373
l-38 34 30 66 c16 37 34 77 39 90 5 12 11 22 14 22 3 0 34 -12 68 -26z"/>
</g>
</svg>
